<mxfile host="65bd71144e">
    <diagram id="LSErJaR5CRDLE5OGDYZ1" name="Page-1">
        <mxGraphModel dx="870" dy="517" grid="1" gridSize="10" guides="1" tooltips="1" connect="1" arrows="1" fold="1" page="1" pageScale="1" pageWidth="850" pageHeight="1100" math="0" shadow="0">
            <root>
                <mxCell id="0"/>
                <mxCell id="1" parent="0"/>
                <mxCell id="3" value="eating" style="rounded=1;whiteSpace=wrap;html=1;" parent="1" vertex="1">
                    <mxGeometry x="240" y="280" width="120" height="60" as="geometry"/>
                </mxCell>
                <mxCell id="4" value="sleeping" style="rounded=1;whiteSpace=wrap;html=1;" parent="1" vertex="1">
                    <mxGeometry x="470" y="430" width="120" height="60" as="geometry"/>
                </mxCell>
                <mxCell id="5" value="thinking ???" style="rounded=1;whiteSpace=wrap;html=1;" parent="1" vertex="1">
                    <mxGeometry x="400" y="590" width="120" height="60" as="geometry"/>
                </mxCell>
                <mxCell id="6" value="take fork B" style="rounded=1;whiteSpace=wrap;html=1;" parent="1" vertex="1">
                    <mxGeometry x="210" y="550" width="120" height="60" as="geometry"/>
                </mxCell>
                <mxCell id="7" value="take fork A" style="rounded=1;whiteSpace=wrap;html=1;" parent="1" vertex="1">
                    <mxGeometry x="140" y="380" width="120" height="60" as="geometry"/>
                </mxCell>
                <mxCell id="8" value="" style="endArrow=classic;html=1;entryX=0;entryY=0.5;entryDx=0;entryDy=0;exitX=0.5;exitY=0;exitDx=0;exitDy=0;" parent="1" source="7" target="3" edge="1">
                    <mxGeometry width="50" height="50" relative="1" as="geometry">
                        <mxPoint x="140" y="340" as="sourcePoint"/>
                        <mxPoint x="190" y="290" as="targetPoint"/>
                    </mxGeometry>
                </mxCell>
                <mxCell id="10" value="" style="endArrow=classic;html=1;entryX=0.5;entryY=1;entryDx=0;entryDy=0;exitX=0;exitY=0.5;exitDx=0;exitDy=0;" parent="1" source="6" target="7" edge="1">
                    <mxGeometry width="50" height="50" relative="1" as="geometry">
                        <mxPoint x="130" y="510" as="sourcePoint"/>
                        <mxPoint x="180" y="460" as="targetPoint"/>
                    </mxGeometry>
                </mxCell>
                <mxCell id="11" value="" style="endArrow=classic;html=1;exitX=0;exitY=0.5;exitDx=0;exitDy=0;entryX=1;entryY=0.5;entryDx=0;entryDy=0;" parent="1" source="5" target="6" edge="1">
                    <mxGeometry width="50" height="50" relative="1" as="geometry">
                        <mxPoint x="580" y="570" as="sourcePoint"/>
                        <mxPoint x="630" y="520" as="targetPoint"/>
                    </mxGeometry>
                </mxCell>
                <mxCell id="12" value="" style="endArrow=classic;html=1;exitX=1;exitY=0.5;exitDx=0;exitDy=0;entryX=0.5;entryY=0;entryDx=0;entryDy=0;" parent="1" source="3" target="4" edge="1">
                    <mxGeometry width="50" height="50" relative="1" as="geometry">
                        <mxPoint x="460" y="290" as="sourcePoint"/>
                        <mxPoint x="510" y="270" as="targetPoint"/>
                    </mxGeometry>
                </mxCell>
                <mxCell id="13" value="" style="endArrow=classic;html=1;exitX=0.5;exitY=1;exitDx=0;exitDy=0;entryX=1;entryY=0.5;entryDx=0;entryDy=0;" parent="1" source="4" target="5" edge="1">
                    <mxGeometry width="50" height="50" relative="1" as="geometry">
                        <mxPoint x="520" y="430" as="sourcePoint"/>
                        <mxPoint x="570" y="380" as="targetPoint"/>
                    </mxGeometry>
                </mxCell>
                <mxCell id="14" value="leave fork A" style="rounded=1;whiteSpace=wrap;html=1;" parent="1" vertex="1">
                    <mxGeometry x="420" y="170" width="120" height="60" as="geometry"/>
                </mxCell>
                <mxCell id="15" value="leave fork B" style="rounded=1;whiteSpace=wrap;html=1;" parent="1" vertex="1">
                    <mxGeometry x="550" y="270" width="120" height="60" as="geometry"/>
                </mxCell>
                <mxCell id="18" value="" style="endArrow=none;dashed=1;html=1;dashPattern=1 3;strokeWidth=2;entryX=0.5;entryY=1;entryDx=0;entryDy=0;" parent="1" target="14" edge="1">
                    <mxGeometry width="50" height="50" relative="1" as="geometry">
                        <mxPoint x="430" y="360" as="sourcePoint"/>
                        <mxPoint x="500" y="330" as="targetPoint"/>
                    </mxGeometry>
                </mxCell>
                <mxCell id="19" value="" style="endArrow=none;dashed=1;html=1;dashPattern=1 3;strokeWidth=2;entryX=0.5;entryY=1;entryDx=0;entryDy=0;" parent="1" target="15" edge="1">
                    <mxGeometry width="50" height="50" relative="1" as="geometry">
                        <mxPoint x="430" y="360" as="sourcePoint"/>
                        <mxPoint x="620" y="370" as="targetPoint"/>
                        <Array as="points">
                            <mxPoint x="430" y="360"/>
                        </Array>
                    </mxGeometry>
                </mxCell>
                <mxCell id="20" value="waiter version" style="ellipse;whiteSpace=wrap;html=1;" parent="1" vertex="1">
                    <mxGeometry x="790" y="110" width="120" height="80" as="geometry"/>
                </mxCell>
                <mxCell id="21" value="Philo cycle" style="ellipse;whiteSpace=wrap;html=1;" parent="1" vertex="1">
                    <mxGeometry x="330" y="50" width="120" height="80" as="geometry"/>
                </mxCell>
                <mxCell id="22" value="let all even/uneven&lt;br&gt;run&amp;nbsp;" style="shape=step;perimeter=stepPerimeter;whiteSpace=wrap;html=1;fixedSize=1;" parent="1" vertex="1">
                    <mxGeometry x="950" y="300" width="120" height="80" as="geometry"/>
                </mxCell>
                <mxCell id="24" value="p 1" style="shape=umlActor;verticalLabelPosition=bottom;verticalAlign=top;html=1;outlineConnect=0;" parent="1" vertex="1">
                    <mxGeometry x="490" y="700" width="30" height="60" as="geometry"/>
                </mxCell>
                <mxCell id="25" value="p2" style="shape=umlActor;verticalLabelPosition=bottom;verticalAlign=top;html=1;outlineConnect=0;" parent="1" vertex="1">
                    <mxGeometry x="630" y="840" width="30" height="60" as="geometry"/>
                </mxCell>
                <mxCell id="26" value="p4" style="shape=umlActor;verticalLabelPosition=bottom;verticalAlign=top;html=1;outlineConnect=0;" parent="1" vertex="1">
                    <mxGeometry x="420" y="990" width="30" height="60" as="geometry"/>
                </mxCell>
                <mxCell id="31" value="fork&amp;nbsp; C" style="ellipse;whiteSpace=wrap;html=1;" parent="1" vertex="1">
                    <mxGeometry x="570" y="960" width="50" height="40" as="geometry"/>
                </mxCell>
                <mxCell id="33" value="fork&amp;nbsp; B" style="ellipse;whiteSpace=wrap;html=1;" parent="1" vertex="1">
                    <mxGeometry x="570" y="770" width="40" height="40" as="geometry"/>
                </mxCell>
                <mxCell id="34" value="fork A" style="ellipse;whiteSpace=wrap;html=1;" parent="1" vertex="1">
                    <mxGeometry x="390" y="750" width="50" height="40" as="geometry"/>
                </mxCell>
                <mxCell id="35" value="&amp;nbsp;fork D" style="ellipse;whiteSpace=wrap;html=1;" parent="1" vertex="1">
                    <mxGeometry x="470" y="1030" width="50" height="40" as="geometry"/>
                </mxCell>
                <mxCell id="36" value="fork E" style="ellipse;whiteSpace=wrap;html=1;" parent="1" vertex="1">
                    <mxGeometry x="350" y="940" width="50" height="40" as="geometry"/>
                </mxCell>
                <mxCell id="42" value="p3" style="shape=umlActor;verticalLabelPosition=bottom;verticalAlign=top;html=1;outlineConnect=0;" parent="1" vertex="1">
                    <mxGeometry x="540" y="990" width="30" height="60" as="geometry"/>
                </mxCell>
                <mxCell id="43" value="p5" style="shape=umlActor;verticalLabelPosition=bottom;verticalAlign=top;html=1;outlineConnect=0;" parent="1" vertex="1">
                    <mxGeometry x="350" y="830" width="30" height="60" as="geometry"/>
                </mxCell>
                <mxCell id="58" style="edgeStyle=none;html=1;exitX=1;exitY=1;exitDx=0;exitDy=0;" parent="1" source="57" edge="1">
                    <mxGeometry relative="1" as="geometry">
                        <mxPoint x="1040" y="960" as="targetPoint"/>
                    </mxGeometry>
                </mxCell>
                <mxCell id="57" value="&lt;ol&gt;&lt;li&gt;&amp;nbsp;p1 take a b&lt;/li&gt;&lt;li&gt;p3 take c d&lt;/li&gt;&lt;li&gt;cycle&amp;nbsp;&lt;/li&gt;&lt;li&gt;p2 takes b c&lt;/li&gt;&lt;li&gt;p4 tales d e&amp;nbsp;&lt;/li&gt;&lt;li&gt;cycle&amp;nbsp;&lt;/li&gt;&lt;li&gt;p5 takes a e&amp;nbsp;&lt;/li&gt;&lt;li&gt;p2 takes b c&lt;/li&gt;&lt;li&gt;cylce&lt;/li&gt;&lt;/ol&gt;" style="text;strokeColor=none;fillColor=none;html=1;whiteSpace=wrap;verticalAlign=middle;overflow=hidden;" parent="1" vertex="1">
                    <mxGeometry x="850" y="730" width="180" height="230" as="geometry"/>
                </mxCell>
                <mxCell id="59" value="A" style="shape=umlActor;verticalLabelPosition=bottom;verticalAlign=top;html=1;outlineConnect=0;" parent="1" vertex="1">
                    <mxGeometry x="1240" y="720" width="30" height="60" as="geometry"/>
                </mxCell>
                <mxCell id="60" value="C" style="shape=umlActor;verticalLabelPosition=bottom;verticalAlign=top;html=1;outlineConnect=0;" parent="1" vertex="1">
                    <mxGeometry x="1130" y="770" width="30" height="60" as="geometry"/>
                </mxCell>
                <mxCell id="61" value="B" style="shape=umlActor;verticalLabelPosition=bottom;verticalAlign=top;html=1;outlineConnect=0;" parent="1" vertex="1">
                    <mxGeometry x="1240" y="830" width="30" height="60" as="geometry"/>
                </mxCell>
                <mxCell id="63" style="edgeStyle=none;html=1;exitX=0;exitY=0.3333333333333333;exitDx=0;exitDy=0;exitPerimeter=0;entryX=0.5;entryY=0.5;entryDx=0;entryDy=0;entryPerimeter=0;" parent="1" source="60" target="60" edge="1">
                    <mxGeometry relative="1" as="geometry"/>
                </mxCell>
            </root>
        </mxGraphModel>
    </diagram>
    <diagram id="E0unU-SEu4GGEW3iMCTZ" name="Page-2">
        <mxGraphModel dx="870" dy="517" grid="1" gridSize="10" guides="1" tooltips="1" connect="1" arrows="1" fold="1" page="1" pageScale="1" pageWidth="850" pageHeight="1100" math="0" shadow="0">
            <root>
                <mxCell id="KF2uJEikBNvUEJr7GiGU-0"/>
                <mxCell id="KF2uJEikBNvUEJr7GiGU-1" parent="KF2uJEikBNvUEJr7GiGU-0"/>
                <mxCell id="KF2uJEikBNvUEJr7GiGU-2" value="" style="ellipse;whiteSpace=wrap;html=1;" vertex="1" parent="KF2uJEikBNvUEJr7GiGU-1">
                    <mxGeometry x="180" y="90" width="380" height="370" as="geometry"/>
                </mxCell>
                <mxCell id="KF2uJEikBNvUEJr7GiGU-3" value="thinking" style="rounded=1;whiteSpace=wrap;html=1;" vertex="1" parent="KF2uJEikBNvUEJr7GiGU-1">
                    <mxGeometry x="310" y="60" width="120" height="60" as="geometry"/>
                </mxCell>
                <mxCell id="KF2uJEikBNvUEJr7GiGU-4" value="take fork 1" style="rounded=1;whiteSpace=wrap;html=1;" vertex="1" parent="KF2uJEikBNvUEJr7GiGU-1">
                    <mxGeometry x="480" y="360" width="120" height="60" as="geometry"/>
                </mxCell>
                <mxCell id="KF2uJEikBNvUEJr7GiGU-5" value="take fork 2" style="rounded=1;whiteSpace=wrap;html=1;" vertex="1" parent="KF2uJEikBNvUEJr7GiGU-1">
                    <mxGeometry x="390" y="430" width="120" height="60" as="geometry"/>
                </mxCell>
                <mxCell id="KF2uJEikBNvUEJr7GiGU-6" value="eat" style="rounded=1;whiteSpace=wrap;html=1;" vertex="1" parent="KF2uJEikBNvUEJr7GiGU-1">
                    <mxGeometry x="210" y="410" width="120" height="60" as="geometry"/>
                </mxCell>
                <mxCell id="KF2uJEikBNvUEJr7GiGU-7" value="sleep" style="rounded=1;whiteSpace=wrap;html=1;" vertex="1" parent="KF2uJEikBNvUEJr7GiGU-1">
                    <mxGeometry x="120" y="200" width="120" height="60" as="geometry"/>
                </mxCell>
                <mxCell id="KF2uJEikBNvUEJr7GiGU-8" value="" style="shape=flexArrow;endArrow=classic;html=1;" edge="1" parent="KF2uJEikBNvUEJr7GiGU-1" source="KF2uJEikBNvUEJr7GiGU-2">
                    <mxGeometry width="50" height="50" relative="1" as="geometry">
                        <mxPoint x="360" y="440" as="sourcePoint"/>
                        <mxPoint x="370" y="640" as="targetPoint"/>
                        <Array as="points">
                            <mxPoint x="370" y="510"/>
                        </Array>
                    </mxGeometry>
                </mxCell>
                <mxCell id="KF2uJEikBNvUEJr7GiGU-9" value="mutex&lt;br&gt;lock" style="shape=xor;whiteSpace=wrap;html=1;rotation=45;" vertex="1" parent="KF2uJEikBNvUEJr7GiGU-1">
                    <mxGeometry x="510" y="140" width="60" height="80" as="geometry"/>
                </mxCell>
                <mxCell id="KF2uJEikBNvUEJr7GiGU-10" value="send request" style="shape=callout;whiteSpace=wrap;html=1;perimeter=calloutPerimeter;" vertex="1" parent="KF2uJEikBNvUEJr7GiGU-1">
                    <mxGeometry x="450" y="110" width="80" height="50" as="geometry"/>
                </mxCell>
                <mxCell id="KF2uJEikBNvUEJr7GiGU-12" value="checks for death" style="shape=hexagon;perimeter=hexagonPerimeter2;whiteSpace=wrap;html=1;fixedSize=1;" vertex="1" parent="KF2uJEikBNvUEJr7GiGU-1">
                    <mxGeometry x="130" y="290" width="120" height="80" as="geometry"/>
                </mxCell>
                <mxCell id="KF2uJEikBNvUEJr7GiGU-13" value="checks for death" style="shape=hexagon;perimeter=hexagonPerimeter2;whiteSpace=wrap;html=1;fixedSize=1;" vertex="1" parent="KF2uJEikBNvUEJr7GiGU-1">
                    <mxGeometry x="510" y="250" width="120" height="80" as="geometry"/>
                </mxCell>
                <mxCell id="KF2uJEikBNvUEJr7GiGU-14" value="checks for death" style="shape=hexagon;perimeter=hexagonPerimeter2;whiteSpace=wrap;html=1;fixedSize=1;" vertex="1" parent="KF2uJEikBNvUEJr7GiGU-1">
                    <mxGeometry x="170" y="90" width="120" height="80" as="geometry"/>
                </mxCell>
            </root>
        </mxGraphModel>
    </diagram>
</mxfile>